<?xml version="1.0" standalone="no"?>
<!DOCTYPE svg PUBLIC "-//W3C//DTD SVG 20010904//EN"
 "http://www.w3.org/TR/2001/REC-SVG-20010904/DTD/svg10.dtd">
<svg version="1.0" xmlns="http://www.w3.org/2000/svg"
 width="500.000000pt" height="500.000000pt" viewBox="0 0 500.000000 500.000000"
 preserveAspectRatio="xMidYMid meet">

<g transform="translate(0.000000,500.000000) scale(0.100000,-0.100000)"
fill="#000000" stroke="none">
<path d="M2151 3571 c-17 -21 -31 -46 -31 -56 0 -12 -5 -15 -21 -10 -76 24
-227 65 -240 65 -9 0 -29 -16 -43 -35 -15 -19 -22 -35 -17 -35 6 0 11 -9 11
-19 0 -28 -30 -35 -54 -12 -25 23 -134 74 -145 67 -4 -3 -26 0 -50 5 -49 11
-68 4 -50 -17 16 -20 5 -28 -20 -14 -19 10 -21 8 -21 -20 0 -16 -4 -30 -10
-30 -17 0 -11 -20 16 -56 15 -19 23 -34 19 -34 -5 0 0 -9 10 -20 14 -15 15
-20 4 -21 -8 0 0 -7 18 -15 66 -29 43 -44 -39 -25 -28 7 -40 5 -49 -5 -6 -8
-18 -14 -25 -14 -8 0 -16 -11 -20 -25 -5 -19 2 -34 35 -71 41 -47 52 -74 29
-74 -7 -1 -1 -8 15 -16 28 -15 36 -34 15 -34 -7 0 23 -18 67 -39 83 -39 260
-150 252 -157 -8 -8 -200 81 -301 139 -53 30 -98 52 -100 49 -2 -4 -12 -36
-21 -72 -9 -35 -23 -76 -30 -89 -11 -21 -10 -29 2 -48 13 -20 13 -24 1 -28
-10 -4 -13 -16 -10 -37 4 -26 2 -30 -12 -25 -22 9 -20 -5 4 -26 23 -19 26 -37
8 -37 -7 -1 -50 -2 -95 -4 -46 -2 -83 0 -83 5 0 5 -4 9 -9 9 -19 0 -19 -31 0
-75 16 -35 17 -49 9 -66 -9 -15 -8 -24 1 -35 18 -22 3 -29 -24 -11 -21 14 -24
14 -34 -2 -7 -11 -8 -23 -1 -34 5 -10 7 -25 4 -35 -3 -9 8 -50 24 -91 17 -40
30 -81 30 -91 0 -21 116 -133 186 -180 45 -31 47 -31 25 -7 -88 96 129 -32
309 -183 83 -70 130 -101 254 -168 71 -39 156 -99 251 -176 37 -31 73 -56 80
-56 7 0 18 -7 26 -16 16 -20 59 -42 93 -48 14 -3 38 -13 54 -24 28 -20 64 -34
93 -37 9 -1 30 -11 46 -23 21 -15 46 -22 75 -22 24 0 60 -9 81 -19 21 -11 40
-15 43 -10 3 6 15 7 26 3 12 -3 24 -1 28 6 6 9 15 8 38 -4 41 -21 103 -20 186
4 76 21 58 25 228 -39 73 -27 81 -26 148 8 41 20 57 35 64 57 4 16 12 36 17
46 5 9 3 29 -4 47 -9 25 -9 36 1 52 9 14 10 19 2 14 -13 -8 -90 61 -90 80 0 6
6 19 13 29 12 16 15 16 57 -2 25 -11 52 -27 59 -36 24 -29 86 -55 162 -68 l71
-12 25 29 c14 17 35 41 47 55 11 14 30 49 40 79 22 63 28 55 -89 123 -164 94
-203 120 -233 151 l-33 34 65 6 c64 6 114 24 149 55 13 11 14 17 5 23 -9 6 -9
11 2 24 11 14 11 16 -1 13 -8 -2 -14 5 -14 14 0 9 -4 20 -8 24 -4 4 -7 17 -7
29 0 35 -25 76 -80 130 -27 27 -50 55 -50 62 0 7 9 22 20 33 13 13 20 33 20
57 0 21 11 60 25 87 32 63 28 152 -7 176 -12 8 -54 42 -93 75 -39 33 -111 91
-160 130 -151 116 -258 209 -247 213 6 2 91 -35 189 -81 98 -46 186 -87 195
-90 17 -6 58 34 58 55 0 15 -68 75 -140 123 -92 61 -499 272 -676 351 -241
107 -439 164 -569 164 -38 0 -47 -5 -74 -39z m408 -762 c114 -54 382 -202 423
-233 9 -7 20 -24 23 -39 9 -36 -14 -36 -57 1 -18 15 -40 32 -49 37 -8 6 -57
38 -109 72 -52 35 -190 111 -307 170 -117 60 -213 111 -213 115 0 8 134 -48
289 -123z m-617 11 c7 -11 18 -20 25 -20 18 0 63 -22 63 -31 0 -13 -56 7 -89
32 -31 23 -40 39 -21 39 5 0 15 -9 22 -20z m-248 -76 c78 -20 157 -54 265
-112 47 -25 117 -57 155 -70 64 -21 70 -22 87 -6 10 9 29 17 42 18 14 0 23 5
19 10 -3 5 5 6 19 1 13 -5 63 -8 111 -7 84 2 88 2 104 -24 14 -21 16 -31 7
-55 -13 -33 3 -53 19 -24 13 23 32 39 97 82 48 31 59 35 98 29 57 -8 99 -30
106 -57 8 -29 -10 -45 -61 -52 -24 -3 -62 -18 -85 -33 l-41 -27 45 -23 c25
-12 87 -63 138 -113 50 -50 96 -91 102 -91 5 0 9 -5 9 -11 0 -14 -35 -2 -90
32 l-45 28 -28 -35 c-37 -45 -100 -87 -158 -106 -42 -13 -48 -13 -67 3 -12 9
-19 19 -16 22 3 3 -4 19 -16 35 -28 38 -21 67 14 58 49 -12 176 44 176 79 0
18 -56 40 -130 50 -14 2 -42 23 -66 50 l-40 47 -12 -27 c-10 -21 -10 -31 -1
-41 6 -8 8 -14 3 -14 -5 0 -2 -4 6 -10 22 -13 5 -23 -19 -11 -22 12 -29 3 -72
-90 -18 -39 -39 -59 -39 -37 0 9 -3 9 -10 -2 -14 -21 -12 -30 3 -24 13 5 149
-88 155 -107 2 -5 10 -9 19 -9 15 0 14 -21 -3 -27 -5 -2 -51 24 -102 57 l-93
60 -15 -35 c-7 -19 -14 -46 -14 -60 0 -16 -6 -25 -16 -25 -8 0 -12 5 -9 10 3
6 0 10 -8 10 -8 0 -20 14 -26 31 -9 28 -5 42 49 150 l60 120 -44 18 c-61 27
-133 74 -119 78 6 2 48 -14 92 -37 80 -40 105 -40 55 -1 -14 11 -42 23 -63 27
-20 4 -43 12 -51 19 -8 7 -53 32 -99 55 -47 23 -101 53 -122 65 -20 13 -39 21
-42 18 -3 -3 -45 14 -94 37 -48 23 -97 43 -108 44 -25 3 -79 26 -125 54 l-35
22 34 0 c18 0 61 -7 95 -16z m516 -49 c51 -26 70 -58 28 -47 -32 8 -98 50 -98
62 0 16 17 12 70 -15z m107 -60 c9 -25 -2 -27 -22 -5 -17 18 -17 20 -1 20 9 0
19 -7 23 -15z m-497 -155 c22 -11 53 -20 70 -20 41 0 142 -52 171 -88 13 -16
55 -50 92 -77 37 -26 66 -49 63 -52 -2 -2 -31 9 -65 26 -49 25 -59 28 -54 13
3 -9 15 -25 25 -36 11 -10 17 -20 15 -22 -7 -7 -77 29 -72 37 7 11 -25 22 -72
24 -49 2 -138 45 -138 66 0 8 -8 20 -18 27 -10 8 -16 19 -14 25 2 7 -12 21
-31 32 -51 29 -56 51 -7 31 57 -24 57 -17 0 9 -37 18 -44 24 -27 24 12 1 40
-8 62 -19z m1227 -35 c48 -29 58 -49 16 -34 -35 12 -93 58 -74 59 8 0 34 -11
58 -25z m-583 -276 c22 -11 44 -39 29 -39 -8 0 -73 41 -73 46 0 7 18 4 44 -7z
m537 -31 c19 -9 41 -24 49 -32 11 -14 9 -16 -8 -16 -12 0 -38 16 -59 36 -21
20 -33 34 -28 32 6 -2 26 -11 46 -20z m-1416 -88 c0 -19 78 -80 86 -67 8 11
174 -75 217 -111 l27 -23 -27 4 c-16 2 -28 3 -28 2 0 -2 25 -20 56 -40 30 -20
53 -39 51 -41 -16 -16 -204 87 -192 106 3 5 0 12 -6 16 -8 4 -9 3 -5 -4 14
-24 -16 -11 -46 18 -16 17 -32 30 -36 30 -10 0 -135 78 -166 104 l-28 24 48
-2 c36 -1 49 -5 49 -16z m1570 -20 c3 -5 -1 -10 -9 -10 -8 0 -18 5 -21 10 -3
6 1 10 9 10 8 0 18 -4 21 -10z m-1277 -49 c20 -10 47 -31 59 -45 13 -14 29
-26 36 -26 20 0 61 -47 48 -54 -12 -8 -91 30 -91 44 0 6 -10 10 -22 10 -29 0
-102 42 -97 55 2 6 12 9 23 7 16 -2 17 0 6 13 -17 20 -7 19 38 -4z m188 -192
c37 -22 44 -39 17 -39 -17 0 -63 37 -63 52 0 12 10 10 46 -13z"/>
<path d="M2330 2461 c0 -11 31 -24 39 -16 3 3 -1 10 -9 15 -19 12 -30 12 -30
1z"/>
<path d="M1440 1956 c0 -2 9 -6 20 -9 11 -3 18 -1 14 4 -5 9 -34 13 -34 5z"/>
</g>
</svg>
