<svg xmlns="http://www.w3.org/2000/svg" xmlns:xlink="http://www.w3.org/1999/xlink" width="500" zoomAndPan="magnify" viewBox="0 0 375 374.999991" height="500" preserveAspectRatio="xMidYMid meet" version="1.0"><defs><g/></defs><g fill="#f1f3f3" fill-opacity="1"><g transform="translate(128.463339, 221.957095)"><g><path d="M 14.46875 0 L 30.671875 0 C 29.097656 -8.808594 30.039062 -21.863281 33.972656 -36.019531 C 37.746094 -49.542969 49.703125 -81.15625 65.429688 -108.839844 L 65.429688 -110.097656 L 3.304688 -110.097656 L 0.15625 -88.863281 L 1.574219 -88.707031 C 5.664062 -99.246094 8.179688 -100.347656 21.390625 -100.1875 L 57.566406 -99.71875 C 46.242188 -78.796875 33.1875 -55.519531 24.851562 -37.117188 C 18.402344 -22.964844 14.46875 -10.222656 14.46875 0 Z M 14.46875 0 "/></g></g></g><g fill="#f1f3f3" fill-opacity="1"><g transform="translate(109.252012, 259.74557)"><g><path d="M 44.824219 1.574219 C 63.386719 1.574219 81.628906 -10.378906 81.628906 -30.039062 C 81.628906 -47.8125 65.273438 -54.734375 47.8125 -61.65625 C 34.445312 -67.160156 18.246094 -73.136719 18.246094 -87.921875 C 18.246094 -101.289062 29.097656 -108.683594 41.835938 -108.683594 C 59.765625 -108.683594 70.777344 -98.929688 76.597656 -85.246094 L 78.167969 -85.71875 L 77.539062 -103.964844 C 71.40625 -107.265625 61.183594 -111.199219 46.871094 -111.199219 C 23.75 -111.199219 8.492188 -99.558594 8.492188 -81.15625 C 8.492188 -64.484375 20.289062 -57.878906 38.847656 -50.488281 C 52.058594 -45.140625 71.40625 -37.90625 71.40625 -22.175781 C 71.40625 -9.4375 60.554688 -1.257812 47.972656 -1.257812 C 26.109375 -1.257812 14.15625 -15.257812 8.019531 -31.769531 L 6.292969 -31.457031 L 7.078125 -9.59375 C 14.46875 -4.246094 28.3125 1.574219 44.824219 1.574219 Z M 44.824219 1.574219 "/></g></g></g><g fill="#f1f3f3" fill-opacity="1"><g transform="translate(139.610885, 139.602003)"><g><path d="M 5.953125 -4.3125 L 2.8125 -4.3125 L 2.8125 -1.671875 L 6.515625 -1.671875 L 6.515625 0 L 0.796875 0 L 0.796875 -9.96875 L 6.515625 -9.96875 L 6.515625 -8.28125 L 2.8125 -8.28125 L 2.8125 -5.9375 L 5.953125 -5.9375 Z M 5.953125 -4.3125 "/></g></g></g><g fill="#f1f3f3" fill-opacity="1"><g transform="translate(148.724656, 139.602003)"><g><path d="M 3.921875 -6.546875 L 5.265625 -9.96875 L 7.5625 -9.96875 L 5.234375 -5.015625 L 7.625 0 L 5.296875 0 L 3.921875 -3.484375 L 2.5625 0 L 0.21875 0 L 2.625 -5.015625 L 0.28125 -9.96875 L 2.578125 -9.96875 Z M 3.921875 -6.546875 "/></g></g></g><g fill="#f1f3f3" fill-opacity="1"><g transform="translate(158.802558, 139.602003)"><g><path d="M 7.5625 -3.3125 C 7.507812 -2.175781 7.1875 -1.316406 6.59375 -0.734375 C 6.007812 -0.148438 5.179688 0.140625 4.109375 0.140625 C 2.984375 0.140625 2.117188 -0.226562 1.515625 -0.96875 C 0.910156 -1.71875 0.609375 -2.773438 0.609375 -4.140625 L 0.609375 -5.828125 C 0.609375 -7.191406 0.921875 -8.242188 1.546875 -8.984375 C 2.171875 -9.722656 3.035156 -10.09375 4.140625 -10.09375 C 5.222656 -10.09375 6.046875 -9.789062 6.609375 -9.1875 C 7.171875 -8.582031 7.488281 -7.710938 7.5625 -6.578125 L 5.546875 -6.578125 C 5.523438 -7.273438 5.414062 -7.757812 5.21875 -8.03125 C 5.019531 -8.300781 4.660156 -8.4375 4.140625 -8.4375 C 3.597656 -8.4375 3.210938 -8.242188 2.984375 -7.859375 C 2.765625 -7.484375 2.648438 -6.867188 2.640625 -6.015625 L 2.640625 -4.125 C 2.640625 -3.132812 2.75 -2.453125 2.96875 -2.078125 C 3.1875 -1.710938 3.566406 -1.53125 4.109375 -1.53125 C 4.640625 -1.53125 5.003906 -1.660156 5.203125 -1.921875 C 5.398438 -2.179688 5.515625 -2.644531 5.546875 -3.3125 Z M 7.5625 -3.3125 "/></g></g></g><g fill="#f1f3f3" fill-opacity="1"><g transform="translate(169.030894, 139.602003)"><g><path d="M 5.953125 -4.3125 L 2.8125 -4.3125 L 2.8125 -1.671875 L 6.515625 -1.671875 L 6.515625 0 L 0.796875 0 L 0.796875 -9.96875 L 6.515625 -9.96875 L 6.515625 -8.28125 L 2.8125 -8.28125 L 2.8125 -5.9375 L 5.953125 -5.9375 Z M 5.953125 -4.3125 "/></g></g></g><g fill="#f1f3f3" fill-opacity="1"><g transform="translate(141.887518, 249.281364)"><g><path d="M 0.140625 -9.527344 L 0.140625 -7.59375 L 4.582031 -7.59375 L 0.253906 0 L 2.675781 0 L 7.832031 -9.527344 Z M 0.140625 -9.527344 "/></g></g></g><g fill="#f1f3f3" fill-opacity="1"><g transform="translate(151.817437, 249.281364)"><g><path d="M 4.539062 -1.484375 C 3.503906 -1.484375 2.605469 -2.003906 2.550781 -3.136719 L 0.421875 -3.136719 C 0.433594 -0.8125 2.355469 0.222656 4.457031 0.222656 C 6.402344 0.222656 8.40625 -0.601562 8.40625 -2.84375 C 8.40625 -6.472656 2.898438 -5.253906 2.898438 -6.949219 C 2.898438 -7.664062 3.726562 -7.945312 4.316406 -7.945312 C 5.367188 -7.945312 5.941406 -7.621094 6.050781 -6.625 L 8.082031 -6.625 C 8.015625 -8.796875 6.25 -9.667969 4.285156 -9.667969 C 2.550781 -9.667969 0.730469 -8.742188 0.730469 -6.78125 C 0.730469 -3.265625 6.234375 -4.457031 6.234375 -2.605469 C 6.234375 -1.75 5.199219 -1.484375 4.539062 -1.484375 Z M 4.539062 -1.484375 "/></g></g></g></svg>